<?xml version="1.0" standalone="no"?>
<!DOCTYPE svg PUBLIC "-//W3C//DTD SVG 20010904//EN"
 "http://www.w3.org/TR/2001/REC-SVG-20010904/DTD/svg10.dtd">
<svg version="1.0" xmlns="http://www.w3.org/2000/svg"
 width="112.5pt" height="112.5pt" viewBox="0 60 225.000000 225.000000"
 preserveAspectRatio="xMidYMid meet">

<g transform="translate(0.000000,225.000000) scale(0.050000,-0.050000)"
fill="#000000" stroke="none">
<path d="M1052 2042 c-16 -71 -15 -89 8 -164 28 -91 101 -189 222 -299 211
-192 274 -271 298 -370 12 -48 10 -127 -4 -174 -4 -11 4 0 16 25 19 37 23 61
23 135 0 86 -2 94 -40 165 -30 57 -62 96 -134 165 -337 322 -360 353 -371 494
l-6 76 -12 -53z"/>
<path d="M1198 1883 c-22 -6 -22 -12 -3 -33 13 -15 29 -17 103 -13 399 23 755
-245 857 -644 24 -93 25 -264 1 -368 -9 -44 -39 -125 -66 -180 -85 -176 -207
-298 -385 -385 -138 -68 -210 -84 -370 -83 -110 0 -143 4 -218 27 -150 45
-237 97 -354 209 -83 80 -140 163 -188 273 -27 62 -40 80 -65 90 -30 13 -31
13 -25 -9 46 -151 138 -301 253 -408 170 -159 371 -239 602 -239 246 0 463 91
635 265 131 133 217 303 246 485 16 101 6 275 -21 370 -90 320 -353 569 -672
634 -72 15 -286 21 -330 9z"/>
<path d="M985 1847 c-24 -117 63 -269 234 -410 38 -33 105 -95 147 -139 97
-102 126 -162 132 -276 l5 -83 -64 35 c-145 79 -328 119 -604 131 -314 14
-476 64 -597 186 l-59 58 27 -48 c57 -106 142 -177 276 -230 101 -41 198 -59
408 -76 293 -25 415 -51 535 -113 124 -65 209 -172 286 -359 33 -82 34 -83 64
-77 49 10 85 33 105 67 41 66 19 138 -75 247 -86 100 -117 172 -80 186 19 8
78 -29 122 -75 l33 -36 -10 29 c-6 16 -8 36 -6 43 3 8 -1 29 -8 48 -27 64
-125 87 -171 40 -20 -20 -25 -34 -25 -77 0 -61 20 -109 79 -196 53 -77 62
-123 31 -145 -22 -16 -23 -15 -81 101 -33 67 -81 145 -113 184 l-55 66 16 79
c37 176 -29 298 -279 515 -188 162 -239 226 -257 321 l-8 42 -8 -38z"/>
<path d="M870 1758 c-72 -40 -236 -206 -284 -286 -21 -35 -37 -65 -35 -67 2
-2 15 -6 29 -10 22 -5 28 -1 42 27 31 66 136 185 216 245 44 34 85 62 91 64 7
3 8 14 3 31 l-7 28 -55 -32z"/>
<path d="M35 1670 c25 -87 123 -209 229 -285 165 -116 327 -166 626 -190 318
-26 409 -48 509 -123 l34 -25 -19 33 c-27 47 -101 103 -176 133 -89 35 -196
56 -380 73 -87 8 -191 21 -230 29 -252 53 -462 177 -573 340 -20 30 -25 34
-20 15z"/>
<path d="M967 1623 c-12 -12 -7 -100 8 -144 9 -24 29 -65 46 -91 25 -38 37
-48 58 -48 35 0 125 -27 174 -51 20 -11 37 -18 37 -15 0 2 -26 23 -57 47 -78
58 -189 165 -215 207 -12 19 -26 50 -33 68 -6 19 -15 31 -18 27z"/>
<path d="M320 1041 c0 -17 65 -104 101 -135 56 -48 142 -91 229 -116 60 -17
120 -23 305 -30 379 -15 511 -47 630 -152 42 -37 44 -27 7 33 -106 167 -333
249 -687 249 -243 0 -401 35 -520 114 -36 25 -65 41 -65 37z"/>
</g>
</svg>
